<svg xmlns="http://www.w3.org/2000/svg" width="256" height="256"><path fill-opacity=".016" d="M0 128.004v128.004l128.25-.254 128.25-.254.254-127.75L257.008 0H0v128.004m.485.496c0 70.4.119 99.053.265 63.672.146-35.38.146-92.98 0-128C.604 29.153.485 58.1.485 128.5" fill="#fff" fill-rule="evenodd"/><path fill-opacity=".263" d="M0 128v83h43v-15.928l-9.75-.286-9.75-.286-.257-65.75L22.986 63H43V45H0v83m214-74v9h20.014l-.257 65.75-.257 65.75-9.75.286-9.75.286V211h42V45h-42v9m-62.5 19.609c-10.333 2.552-19.876 9.652-24.042 17.887-2.426 4.795-2.817 6.72-2.772 13.653.028 4.439.448 8.359.933 8.711.484.352 1.765 2.375 2.845 4.495 2.56 5.024 7.72 9.338 16.192 13.537 3.764 1.866 7.625 3.778 8.58 4.25.955.472 2.237.858 2.849.858 3.866 0 13.915 6.996 13.915 9.687 0 .722.45 1.313 1 1.313 3.135 0-1.119 8.524-5.552 11.125-3.336 1.956-20.848 2.655-21.948.875-.34-.55-1.829-1.016-3.309-1.035-1.48-.02-3.816-.679-5.191-1.465s-3.738-1.445-5.25-1.465c-2.354-.03-2.75.369-2.75 2.765 0 1.54-.448 3.248-.995 3.795-.547.547-1.109 3.852-1.25 7.344-.252 6.265-.215 6.361 2.745 7.278 1.65.511 3.9 1.291 5 1.733 10.069 4.046 31.99 3.82 42-.432 1.65-.701 3.45-1.442 4-1.646 5.858-2.177 15.5-11.626 15.5-15.191 0-.704.563-1.843 1.25-2.531.821-.821 1.246-4.41 1.239-10.45-.011-8.874-.14-9.398-3.643-14.802-3.845-5.932-12.963-12.755-21.846-16.349-10.1-4.086-11.644-4.746-14.968-6.394-1.924-.953-4.298-3.294-5.331-5.256-1.818-3.452-1.817-3.618.013-6.894 2.21-3.956 6.57-5.82 13.869-5.929 5.902-.088 15.834 1.74 19.343 3.561 3.185 1.652 3.762 1.17 4.611-3.854.39-2.313 1.044-4.898 1.453-5.745.408-.846 1.257-3.113 1.887-5.038.977-2.99.896-3.682-.558-4.75-.935-.687-2.425-1.25-3.31-1.25-.885 0-2.151-.542-2.814-1.205-1.224-1.224-29.511-2.219-33.695-1.186M83.71 109.75c-.196 20.565-.79 37.578-1.4 40.053-1.103 4.474-4.69 9.197-6.984 9.197-.729 0-1.326.45-1.326 1 0 .577-3.147 1-7.441 1-4.093 0-7.719-.45-8.059-1-1.127-1.824-2.996-1.037-4.156 1.75-.63 1.512-1.425 6.145-1.768 10.295l-.622 7.545 5.833 1.205c7.154 1.478 18.342 1.55 23.713.154 4.717-1.226 13.125-5.286 16.104-7.775 2.946-2.462 8.396-12.563 8.396-15.561 0-1.372.45-2.773 1-3.113.64-.395 1-15.01 1-40.559V74H84.049l-.339 35.75" fill="#fff" fill-rule="evenodd"/><path fill-opacity=".151" d="M0 128v83h43v-15.93l-10.25-.285-10.25-.285-.257-65.64-.257-65.64 2.676-.671c1.473-.37 5.638-.61 9.258-.535 3.619.076 7.143.104 7.83.062.896-.055 1.25-2.483 1.25-8.576V45H0v83m214-74.5c0 6.093.354 8.521 1.25 8.576.688.042 4.211.014 7.83-.062 3.62-.075 7.785.165 9.258.535l2.676.671-.257 65.64-.257 65.64-10.25.285-10.25.285V211h42V45h-42v8.5m-64.034 21.331C139.35 78.032 132.229 83.558 127.84 92c-1.883 3.621-2.34 6.062-2.34 12.5 0 6.922.37 8.629 2.743 12.666 4.801 8.167 12.726 13.597 28.257 19.363 9.807 3.641 15.5 8.594 15.5 13.485 0 3.456-2.837 7.846-6.267 9.697-5.111 2.757-19.124 2.21-29.116-1.137-4.336-1.452-8-2.513-8.143-2.357-.143.155-1.267 4.252-2.498 9.103-1.538 6.064-1.914 9.142-1.204 9.852 4.801 4.801 32.005 7.541 44.098 4.441 9.202-2.359 12.986-4.402 18.727-10.109 11.073-11.009 11.836-28.245 1.746-39.467-4.581-5.095-12.103-9.45-25.256-14.622-8.878-3.491-15.087-8.796-15.087-12.892 0-4.506 5.692-9.135 12.191-9.915 5.825-.699 13.854.368 20.77 2.76 2.453.849 4.643 1.361 4.866 1.139.222-.223 1.453-4.334 2.735-9.135 2.778-10.409 2.838-10.316-8.304-12.765-9.388-2.062-24.056-1.957-31.292.224M84 109.787c0 40.835-.443 44.161-6.503 48.783-3.254 2.482-3.961 2.606-12.97 2.277-5.241-.191-9.537-.122-9.548.153-.01.275-.622 4.21-1.359 8.743-1.177 7.237-1.156 8.397.173 9.5 1.057.878 5.763 1.257 15.61 1.257 12.563 0 14.615-.246 18.853-2.258 6.716-3.188 12.276-8.559 15.15-14.635 3.874-8.189 4.698-18.642 4.381-55.607l-.287-33.5-11.75-.282L84 73.937v35.85" fill="#fff" fill-rule="evenodd"/><path fill-opacity=".541" d="M160 73.637c-12.871 1.88-18.836 4.327-25.486 10.457-6.389 5.889-8.869 12.461-8.252 21.862.274 4.163 1.244 8.979 2.166 10.745 2.316 4.439 10.983 12.001 16.485 14.383 2.523 1.093 5.368 2.42 6.323 2.951.955.531 2.318.965 3.028.965 2.327 0 13.185 6.029 15.486 8.599 3.422 3.821 3.125 10.372-.641 14.138-4.213 4.213-12.115 5.914-20.308 4.372-7.278-1.371-16.804-4.107-18.394-5.284-1.1-.815-2.175 1.84-4.447 10.988-.589 2.371-1.298 4.905-1.577 5.63-.929 2.423 13.278 6.436 25.701 7.261 18.669 1.24 36.514-6.299 42.393-17.909 2.663-5.259 3.652-13.503 2.434-20.295-2.132-11.889-8.946-17.601-32.249-27.032-9.141-3.7-13.662-7.98-13.662-12.935 0-4.596 4.344-9.132 9.711-10.139 5.104-.957 18.156.235 22.515 2.056 2.04.853 4.076 1.55 4.524 1.55.447 0 1.401-2.138 2.12-4.75.719-2.612 1.717-6.055 2.218-7.649.502-1.595.912-3.435.912-4.09 0-1.871-4.361-3.399-14.309-5.012-9.005-1.461-11.652-1.597-16.691-.862M83.978 112.25c-.02 34.394-.167 37.57-1.916 41.422-2.984 6.573-5.799 7.843-17.152 7.741l-9.664-.087-.994 8.087c-.827 6.733-.75 8.283.463 9.26 1.94 1.563 15.132 2.738 21.86 1.947 13.917-1.635 22.771-8.169 27.945-20.62 1.697-4.084 1.905-8.223 2.246-44.75l.375-40.25H84l-.022 37.25" fill="#fff" fill-rule="evenodd"/></svg>